<?xml version="1.0" encoding="utf-8"?>
<Project name="Video" themeId="0" version="65540" templateID="SimpleProjectTemplate">
  <MediaItems>
    <MediaItem id="1" filePath="C:\Users\dhara\Documents\Work\MHS\Year 9\Other\International Studies\Term 3\Asylum Website\Cheeky 50\1-H4n_puWrhoEsPJzPMf1-8w.jpeg" arWidth="768" arHeight="511" duration="0" songTitle="" songArtist="" songAlbum="" songCopyrightUrl="" songArtistUrl="" songAudioFileUrl="" stabilizationMode="0" mediaItemType="2" />
    <MediaItem id="2" filePath="C:\Users\dhara\Documents\Work\MHS\Year 9\Other\International Studies\Term 3\Asylum Website\Cheeky 50\216831_refugees_and_migrants_-_greece_macedonia-1-1-e1474435612843-1600x836.jpg" arWidth="768" arHeight="401" duration="0" songTitle="" songArtist="" songAlbum="" songCopyrightUrl="" songArtistUrl="" songAudioFileUrl="" stabilizationMode="0" mediaItemType="2" />
    <MediaItem id="3" filePath="C:\Users\dhara\Documents\Work\MHS\Year 9\Other\International Studies\Term 3\Asylum Website\Cheeky 50\201506291251310320.jpg" arWidth="3543" arHeight="2362" duration="0" songTitle="" songArtist="" songAlbum="" songCopyrightUrl="" songArtistUrl="" songAudioFileUrl="" stabilizationMode="0" mediaItemType="2" />
    <MediaItem id="4" filePath="C:\Users\dhara\Documents\Work\MHS\Year 9\Other\International Studies\Term 3\Asylum Website\Cheeky 50\asylum-boat.jpg" arWidth="2816" arHeight="2112" duration="0" songTitle="" songArtist="" songAlbum="" songCopyrightUrl="" songArtistUrl="" songAudioFileUrl="" stabilizationMode="0" mediaItemType="2" />
    <MediaItem id="5" filePath="C:\Users\dhara\Documents\Work\MHS\Year 9\Other\International Studies\Term 3\Asylum Website\Cheeky 50\asylum-seekers-on-boat-docked-at-merak-data.jpg" arWidth="3000" arHeight="2019" duration="0" songTitle="" songArtist="" songAlbum="" songCopyrightUrl="" songArtistUrl="" songAudioFileUrl="" stabilizationMode="0" mediaItemType="2" />
    <MediaItem id="6" filePath="C:\Users\dhara\Documents\Work\MHS\Year 9\Other\International Studies\Term 3\Asylum Website\Cheeky 50\Calais-Getty.jpg" arWidth="768" arHeight="576" duration="0" songTitle="" songArtist="" songAlbum="" songCopyrightUrl="" songArtistUrl="" songAudioFileUrl="" stabilizationMode="0" mediaItemType="2" />
    <MediaItem id="7" filePath="C:\Users\dhara\Documents\Work\MHS\Year 9\Other\International Studies\Term 3\Asylum Website\Cheeky 50\GettyImages-4884475621-1160x773.jpg" arWidth="768" arHeight="512" duration="0" songTitle="" songArtist="" songAlbum="" songCopyrightUrl="" songArtistUrl="" songAudioFileUrl="" stabilizationMode="0" mediaItemType="2" />
    <MediaItem id="8" filePath="C:\Users\dhara\Documents\Work\MHS\Year 9\Other\International Studies\Term 3\Asylum Website\Cheeky 50\indonesian-rescuers-aid-asylum-seekers-upon-arrival-at-puger-to-data.jpg" arWidth="2154" arHeight="3000" duration="0" songTitle="" songArtist="" songAlbum="" songCopyrightUrl="" songArtistUrl="" songAudioFileUrl="" stabilizationMode="0" mediaItemType="2" />
    <MediaItem id="9" filePath="C:\Users\dhara\Documents\Work\MHS\Year 9\Other\International Studies\Term 3\Asylum Website\Cheeky 50\large_Refugees_welcome_rally_in_Belfast.jpg" arWidth="1500" arHeight="964" duration="0" songTitle="" songArtist="" songAlbum="" songCopyrightUrl="" songArtistUrl="" songAudioFileUrl="" stabilizationMode="0" mediaItemType="2" />
    <MediaItem id="10" filePath="C:\Users\dhara\Documents\Work\MHS\Year 9\Other\International Studies\Term 3\Asylum Website\Cheeky 50\middle_eastern_asylum_seekers.jpg" arWidth="768" arHeight="432" duration="0" songTitle="" songArtist="" songAlbum="" songCopyrightUrl="" songArtistUrl="" songAudioFileUrl="" stabilizationMode="0" mediaItemType="2" />
    <MediaItem id="11" filePath="C:\Users\dhara\Documents\Work\MHS\Year 9\Other\International Studies\Term 3\Asylum Website\Cheeky 50\Nauru.jpg" arWidth="1200" arHeight="800" duration="0" songTitle="" songArtist="" songAlbum="" songCopyrightUrl="" songArtistUrl="" songAudioFileUrl="" stabilizationMode="0" mediaItemType="2" />
    <MediaItem id="12" filePath="C:\Users\dhara\Documents\Work\MHS\Year 9\Other\International Studies\Term 3\Asylum Website\Cheeky 50\refugees-May-13-16-TND.jpg" arWidth="1200" arHeight="800" duration="0" songTitle="" songArtist="" songAlbum="" songCopyrightUrl="" songArtistUrl="" songAudioFileUrl="" stabilizationMode="0" mediaItemType="2" />
    <MediaItem id="13" filePath="C:\Users\dhara\Documents\Work\MHS\Year 9\Other\International Studies\Term 3\Asylum Website\Cheeky 50\refugees-on-a-boat.jpg" arWidth="1280" arHeight="853" duration="0" songTitle="" songArtist="" songAlbum="" songCopyrightUrl="" songArtistUrl="" songAudioFileUrl="" stabilizationMode="0" mediaItemType="2" />
    <MediaItem id="14" filePath="C:\Users\dhara\Documents\Work\MHS\Year 9\Other\International Studies\Term 3\Asylum Website\Cheeky 50\rtx19zda.jpg" arWidth="1960" arHeight="1102" duration="0" songTitle="" songArtist="" songAlbum="" songCopyrightUrl="" songArtistUrl="" songAudioFileUrl="" stabilizationMode="0" mediaItemType="2" />
    <MediaItem id="15" filePath="C:\Users\dhara\Documents\Work\MHS\Year 9\Other\International Studies\Term 3\Asylum Website\Cheeky 50\screen-shot-2015-09-20-at-13-31-00.png" arWidth="1070" arHeight="774" duration="0" songTitle="" songArtist="" songAlbum="" songCopyrightUrl="" songArtistUrl="" songAudioFileUrl="" stabilizationMode="0" mediaItemType="2" />
    <MediaItem id="16" filePath="C:\Users\dhara\Documents\Work\MHS\Year 9\Other\International Studies\Term 3\Asylum Website\Cheeky 50\skynews.img.1200.745.jpeg" arWidth="1200" arHeight="745" duration="0" songTitle="" songArtist="" songAlbum="" songCopyrightUrl="" songArtistUrl="" songAudioFileUrl="" stabilizationMode="0" mediaItemType="2" />
    <MediaItem id="17" filePath="C:\Users\dhara\Documents\Work\MHS\Year 9\Other\International Studies\Term 3\Asylum Website\Cheeky 50\woomera_aap.jpg" arWidth="1996" arHeight="1084" duration="0" songTitle="" songArtist="" songAlbum="" songCopyrightUrl="" songArtistUrl="" songAudioFileUrl="" stabilizationMode="0" mediaItemType="2" />
    <MediaItem id="18" filePath="C:\Users\dhara\Documents\Work\MHS\Year 9\Other\International Studies\Term 3\Asylum Website\Cheeky 50\Moar\Donâ€™t-most-asylum-seeker-come-here-to-work.jpg" arWidth="1400" arHeight="788" duration="0" songTitle="" songArtist="" songAlbum="" songCopyrightUrl="" songArtistUrl="" songAudioFileUrl="" stabilizationMode="0" mediaItemType="2" />
    <MediaItem id="19" filePath="C:\Users\dhara\Documents\Work\MHS\Year 9\Other\International Studies\Term 3\Asylum Website\Cheeky 50\Moar\IMG-20160320-WA0004 (1).jpg" arWidth="1280" arHeight="765" duration="0" songTitle="" songArtist="" songAlbum="" songCopyrightUrl="" songArtistUrl="" songAudioFileUrl="" stabilizationMode="0" mediaItemType="2" />
    <MediaItem id="20" filePath="C:\Users\dhara\Documents\Work\MHS\Year 9\Other\International Studies\Term 3\Asylum Website\Cheeky 50\Moar\2C151F5E00000578-3227059-image-a-45_1441752291485.jpg" arWidth="634" arHeight="423" duration="0" songTitle="" songArtist="" songAlbum="" songCopyrightUrl="" songArtistUrl="" songAudioFileUrl="" stabilizationMode="0" mediaItemType="2" />
    <MediaItem id="21" filePath="C:\Users\dhara\Documents\Work\MHS\Year 9\Other\International Studies\Term 3\Asylum Website\Cheeky 50\Moar\9e334aa5378514ce6b93a8dbe13fa90a_XL.jpg" arWidth="1170" arHeight="719" duration="0" songTitle="" songArtist="" songAlbum="" songCopyrightUrl="" songArtistUrl="" songAudioFileUrl="" stabilizationMode="0" mediaItemType="2" />
    <MediaItem id="22" filePath="C:\Users\dhara\Documents\Work\MHS\Year 9\Other\International Studies\Term 3\Asylum Website\Cheeky 50\Moar\32-macedonia-refugee-ap.jpg" arWidth="2048" arHeight="1536" duration="0" songTitle="" songArtist="" songAlbum="" songCopyrightUrl="" songArtistUrl="" songAudioFileUrl="" stabilizationMode="0" mediaItemType="2" />
    <MediaItem id="23" filePath="C:\Users\dhara\Documents\Work\MHS\Year 9\Other\International Studies\Term 3\Asylum Website\Cheeky 50\Moar\216832_Refugees_and_migrants_-_Greece_Macedonia.jpg" arWidth="2000" arHeight="1333" duration="0" songTitle="" songArtist="" songAlbum="" songCopyrightUrl="" songArtistUrl="" songAudioFileUrl="" stabilizationMode="0" mediaItemType="2" />
    <MediaItem id="24" filePath="C:\Users\dhara\Documents\Work\MHS\Year 9\Other\International Studies\Term 3\Asylum Website\Cheeky 50\Moar\136080749.jpg" arWidth="3000" arHeight="1829" duration="0" songTitle="" songArtist="" songAlbum="" songCopyrightUrl="" songArtistUrl="" songAudioFileUrl="" stabilizationMode="0" mediaItemType="2" />
    <MediaItem id="25" filePath="C:\Users\dhara\Documents\Work\MHS\Year 9\Other\International Studies\Term 3\Asylum Website\Cheeky 50\Moar\509063246.jpg" arWidth="630" arHeight="420" duration="0" songTitle="" songArtist="" songAlbum="" songCopyrightUrl="" songArtistUrl="" songAudioFileUrl="" stabilizationMode="0" mediaItemType="2" />
    <MediaItem id="26" filePath="C:\Users\dhara\Documents\Work\MHS\Year 9\Other\International Studies\Term 3\Asylum Website\Cheeky 50\Moar\4231140227.jpg" arWidth="609" arHeight="343" duration="0" songTitle="" songArtist="" songAlbum="" songCopyrightUrl="" songArtistUrl="" songAudioFileUrl="" stabilizationMode="0" mediaItemType="2" />
    <MediaItem id="27" filePath="C:\Users\dhara\Documents\Work\MHS\Year 9\Other\International Studies\Term 3\Asylum Website\Cheeky 50\Moar\1454137968113.jpg" arWidth="620" arHeight="348" duration="0" songTitle="" songArtist="" songAlbum="" songCopyrightUrl="" songArtistUrl="" songAudioFileUrl="" stabilizationMode="0" mediaItemType="2" />
    <MediaItem id="28" filePath="C:\Users\dhara\Documents\Work\MHS\Year 9\Other\International Studies\Term 3\Asylum Website\Cheeky 50\Moar\20150608001142352578-original.jpg" arWidth="4096" arHeight="2732" duration="0" songTitle="" songArtist="" songAlbum="" songCopyrightUrl="" songArtistUrl="" songAudioFileUrl="" stabilizationMode="0" mediaItemType="2" />
    <MediaItem id="29" filePath="C:\Users\dhara\Documents\Work\MHS\Year 9\Other\International Studies\Term 3\Asylum Website\Cheeky 50\Moar\African_asylum_seekers_in_Israel.jpg" arWidth="2048" arHeight="1536" duration="0" songTitle="" songArtist="" songAlbum="" songCopyrightUrl="" songArtistUrl="" songAudioFileUrl="" stabilizationMode="0" mediaItemType="2" />
    <MediaItem id="30" filePath="C:\Users\dhara\Documents\Work\MHS\Year 9\Other\International Studies\Term 3\Asylum Website\Cheeky 50\Moar\African-immigrants-in-Libya-Yaseen-Kanuni-for-the-Guardian-Apr-20-2015.jpg" arWidth="1152" arHeight="684" duration="0" songTitle="" songArtist="" songAlbum="" songCopyrightUrl="" songArtistUrl="" songAudioFileUrl="" stabilizationMode="0" mediaItemType="2" />
    <MediaItem id="31" filePath="C:\Users\dhara\Documents\Work\MHS\Year 9\Other\International Studies\Term 3\Asylum Website\Cheeky 50\Moar\Alice-25.08.2013-asylum-seekers.jpg" arWidth="650" arHeight="366" duration="0" songTitle="" songArtist="" songAlbum="" songCopyrightUrl="" songArtistUrl="" songAudioFileUrl="" stabilizationMode="0" mediaItemType="2" />
    <MediaItem id="32" filePath="C:\Users\dhara\Documents\Work\MHS\Year 9\Other\International Studies\Term 3\Asylum Website\Cheeky 50\Moar\an20130721s1a.jpg" arWidth="4000" arHeight="3157" duration="0" songTitle="" songArtist="" songAlbum="" songCopyrightUrl="" songArtistUrl="" songAudioFileUrl="" stabilizationMode="0" mediaItemType="2" />
    <MediaItem id="33" filePath="C:\Users\dhara\Documents\Work\MHS\Year 9\Other\International Studies\Term 3\Asylum Website\Cheeky 50\Moar\Asylum_feach.jpg" arWidth="1200" arHeight="800" duration="0" songTitle="" songArtist="" songAlbum="" songCopyrightUrl="" songArtistUrl="" songAudioFileUrl="" stabilizationMode="0" mediaItemType="2" />
    <MediaItem id="34" filePath="C:\Users\dhara\Documents\Work\MHS\Year 9\Other\International Studies\Term 3\Asylum Website\Cheeky 50\Moar\Asylum-Photo-credit-Jan-CarrollHG.jpg" arWidth="1170" arHeight="878" duration="0" songTitle="" songArtist="" songAlbum="" songCopyrightUrl="" songArtistUrl="" songAudioFileUrl="" stabilizationMode="0" mediaItemType="2" />
    <MediaItem id="35" filePath="C:\Users\dhara\Documents\Work\MHS\Year 9\Other\International Studies\Term 3\Asylum Website\Cheeky 50\Moar\asylum-seekers-malaysia1.jpg" arWidth="600" arHeight="338" duration="0" songTitle="" songArtist="" songAlbum="" songCopyrightUrl="" songArtistUrl="" songAudioFileUrl="" stabilizationMode="0" mediaItemType="2" />
    <MediaItem id="36" filePath="C:\Users\dhara\Documents\Work\MHS\Year 9\Other\International Studies\Term 3\Asylum Website\Cheeky 50\Moar\asylum-seekers-on-micronesia-island-of-yap-data.jpg" arWidth="2272" arHeight="1704" duration="0" songTitle="" songArtist="" songAlbum="" songCopyrightUrl="" songArtistUrl="" songAudioFileUrl="" stabilizationMode="0" mediaItemType="2" />
    <MediaItem id="37" filePath="C:\Users\dhara\Documents\Work\MHS\Year 9\Other\International Studies\Term 3\Asylum Website\Cheeky 50\Moar\asylum-seekers-say-theyre-prepared-to-die-in-protest-at-illegal-border-restrictions-body-image-1448389106.jpg" arWidth="1220" arHeight="813" duration="0" songTitle="" songArtist="" songAlbum="" songCopyrightUrl="" songArtistUrl="" songAudioFileUrl="" stabilizationMode="0" mediaItemType="2" />
    <MediaItem id="38" filePath="C:\Users\dhara\Documents\Work\MHS\Year 9\Other\International Studies\Term 3\Asylum Website\Cheeky 50\Moar\FMP131029043.jpg" arWidth="2362" arHeight="1575" duration="0" songTitle="" songArtist="" songAlbum="" songCopyrightUrl="" songArtistUrl="" songAudioFileUrl="" stabilizationMode="0" mediaItemType="2" />
    <MediaItem id="39" filePath="C:\Users\dhara\Documents\Work\MHS\Year 9\Other\International Studies\Term 3\Asylum Website\Cheeky 50\Moar\skynews.img.600.372.jpeg" arWidth="600" arHeight="372" duration="0" songTitle="" songArtist="" songAlbum="" songCopyrightUrl="" songArtistUrl="" songAudioFileUrl="" stabilizationMode="0" mediaItemType="2" />
    <MediaItem id="40" filePath="C:\Users\dhara\Documents\Work\MHS\Year 9\Other\International Studies\Term 3\Asylum Website\Cheeky 50\Moar\australia-asylum-seeker-protest.jpg" arWidth="768" arHeight="518" duration="0" songTitle="" songArtist="" songAlbum="" songCopyrightUrl="" songArtistUrl="" songAudioFileUrl="" stabilizationMode="0" mediaItemType="2" />
  </MediaItems>
  <Extents>
    <ImageClip extentID="5" gapBefore="0" mediaItemID="1" duration="7">
      <Effects />
      <Transitions>
        <ShapeEffect effectTemplateID="CrossfadeTransitionTemplate" duration="1.5">
          <BoundProperties />
        </ShapeEffect>
      </Transitions>
      <BoundProperties>
        <BoundPropertyInt Name="rotateStepNinety" Value="0" />
      </BoundProperties>
    </ImageClip>
    <ImageClip extentID="6" gapBefore="0" mediaItemID="2" duration="7">
      <Effects />
      <Transitions>
        <ShapeEffect effectTemplateID="CrossfadeTransitionTemplate" duration="1.5">
          <BoundProperties />
        </ShapeEffect>
      </Transitions>
      <BoundProperties>
        <BoundPropertyInt Name="rotateStepNinety" Value="0" />
      </BoundProperties>
    </ImageClip>
    <ImageClip extentID="7" gapBefore="0" mediaItemID="3" duration="7">
      <Effects />
      <Transitions>
        <ShapeEffect effectTemplateID="CrossfadeTransitionTemplate" duration="1.5">
          <BoundProperties />
        </ShapeEffect>
      </Transitions>
      <BoundProperties>
        <BoundPropertyInt Name="rotateStepNinety" Value="0" />
      </BoundProperties>
    </ImageClip>
    <ImageClip extentID="8" gapBefore="0" mediaItemID="4" duration="7">
      <Effects />
      <Transitions>
        <ShapeEffect effectTemplateID="CrossfadeTransitionTemplate" duration="1.5">
          <BoundProperties />
        </ShapeEffect>
      </Transitions>
      <BoundProperties>
        <BoundPropertyInt Name="rotateStepNinety" Value="0" />
      </BoundProperties>
    </ImageClip>
    <ImageClip extentID="9" gapBefore="0" mediaItemID="5" duration="7">
      <Effects />
      <Transitions>
        <ShapeEffect effectTemplateID="CrossfadeTransitionTemplate" duration="1.5">
          <BoundProperties />
        </ShapeEffect>
      </Transitions>
      <BoundProperties>
        <BoundPropertyInt Name="rotateStepNinety" Value="0" />
      </BoundProperties>
    </ImageClip>
    <ImageClip extentID="10" gapBefore="0" mediaItemID="6" duration="7">
      <Effects />
      <Transitions>
        <ShapeEffect effectTemplateID="CrossfadeTransitionTemplate" duration="1.5">
          <BoundProperties />
        </ShapeEffect>
      </Transitions>
      <BoundProperties>
        <BoundPropertyInt Name="rotateStepNinety" Value="0" />
      </BoundProperties>
    </ImageClip>
    <ImageClip extentID="11" gapBefore="0" mediaItemID="7" duration="7">
      <Effects />
      <Transitions>
        <ShapeEffect effectTemplateID="CrossfadeTransitionTemplate" duration="1.5">
          <BoundProperties />
        </ShapeEffect>
      </Transitions>
      <BoundProperties>
        <BoundPropertyInt Name="rotateStepNinety" Value="0" />
      </BoundProperties>
    </ImageClip>
    <ImageClip extentID="12" gapBefore="0" mediaItemID="8" duration="7">
      <Effects />
      <Transitions>
        <ShapeEffect effectTemplateID="CrossfadeTransitionTemplate" duration="1.5">
          <BoundProperties />
        </ShapeEffect>
      </Transitions>
      <BoundProperties>
        <BoundPropertyInt Name="rotateStepNinety" Value="0" />
      </BoundProperties>
    </ImageClip>
    <ImageClip extentID="13" gapBefore="0" mediaItemID="9" duration="7">
      <Effects />
      <Transitions>
        <ShapeEffect effectTemplateID="CrossfadeTransitionTemplate" duration="1.5">
          <BoundProperties />
        </ShapeEffect>
      </Transitions>
      <BoundProperties>
        <BoundPropertyInt Name="rotateStepNinety" Value="0" />
      </BoundProperties>
    </ImageClip>
    <ImageClip extentID="14" gapBefore="0" mediaItemID="10" duration="7">
      <Effects />
      <Transitions>
        <ShapeEffect effectTemplateID="CrossfadeTransitionTemplate" duration="1.5">
          <BoundProperties />
        </ShapeEffect>
      </Transitions>
      <BoundProperties>
        <BoundPropertyInt Name="rotateStepNinety" Value="0" />
      </BoundProperties>
    </ImageClip>
    <ImageClip extentID="15" gapBefore="0" mediaItemID="11" duration="7">
      <Effects />
      <Transitions>
        <ShapeEffect effectTemplateID="CrossfadeTransitionTemplate" duration="1.5">
          <BoundProperties />
        </ShapeEffect>
      </Transitions>
      <BoundProperties>
        <BoundPropertyInt Name="rotateStepNinety" Value="0" />
      </BoundProperties>
    </ImageClip>
    <ImageClip extentID="16" gapBefore="0" mediaItemID="12" duration="7">
      <Effects />
      <Transitions>
        <ShapeEffect effectTemplateID="CrossfadeTransitionTemplate" duration="1.5">
          <BoundProperties />
        </ShapeEffect>
      </Transitions>
      <BoundProperties>
        <BoundPropertyInt Name="rotateStepNinety" Value="0" />
      </BoundProperties>
    </ImageClip>
    <ImageClip extentID="17" gapBefore="0" mediaItemID="13" duration="7">
      <Effects />
      <Transitions>
        <ShapeEffect effectTemplateID="CrossfadeTransitionTemplate" duration="1.5">
          <BoundProperties />
        </ShapeEffect>
      </Transitions>
      <BoundProperties>
        <BoundPropertyInt Name="rotateStepNinety" Value="0" />
      </BoundProperties>
    </ImageClip>
    <ImageClip extentID="18" gapBefore="0" mediaItemID="14" duration="7">
      <Effects />
      <Transitions>
        <ShapeEffect effectTemplateID="CrossfadeTransitionTemplate" duration="1.5">
          <BoundProperties />
        </ShapeEffect>
      </Transitions>
      <BoundProperties>
        <BoundPropertyInt Name="rotateStepNinety" Value="0" />
      </BoundProperties>
    </ImageClip>
    <ImageClip extentID="19" gapBefore="0" mediaItemID="15" duration="7">
      <Effects />
      <Transitions>
        <ShapeEffect effectTemplateID="CrossfadeTransitionTemplate" duration="1.5">
          <BoundProperties />
        </ShapeEffect>
      </Transitions>
      <BoundProperties>
        <BoundPropertyInt Name="rotateStepNinety" Value="0" />
      </BoundProperties>
    </ImageClip>
    <ImageClip extentID="20" gapBefore="0" mediaItemID="16" duration="7">
      <Effects />
      <Transitions>
        <ShapeEffect effectTemplateID="CrossfadeTransitionTemplate" duration="1.5">
          <BoundProperties />
        </ShapeEffect>
      </Transitions>
      <BoundProperties>
        <BoundPropertyInt Name="rotateStepNinety" Value="0" />
      </BoundProperties>
    </ImageClip>
    <ImageClip extentID="21" gapBefore="0" mediaItemID="17" duration="7">
      <Effects />
      <Transitions>
        <ShapeEffect effectTemplateID="CrossfadeTransitionTemplate" duration="1.5">
          <BoundProperties />
        </ShapeEffect>
      </Transitions>
      <BoundProperties>
        <BoundPropertyInt Name="rotateStepNinety" Value="0" />
      </BoundProperties>
    </ImageClip>
    <ImageClip extentID="22" gapBefore="0" mediaItemID="18" duration="7">
      <Effects />
      <Transitions>
        <ShapeEffect effectTemplateID="CrossfadeTransitionTemplate" duration="1.5">
          <BoundProperties />
        </ShapeEffect>
      </Transitions>
      <BoundProperties>
        <BoundPropertyInt Name="rotateStepNinety" Value="0" />
      </BoundProperties>
    </ImageClip>
    <ImageClip extentID="23" gapBefore="0" mediaItemID="19" duration="7">
      <Effects />
      <Transitions>
        <ShapeEffect effectTemplateID="CrossfadeTransitionTemplate" duration="1.5">
          <BoundProperties />
        </ShapeEffect>
      </Transitions>
      <BoundProperties>
        <BoundPropertyInt Name="rotateStepNinety" Value="0" />
      </BoundProperties>
    </ImageClip>
    <ImageClip extentID="24" gapBefore="0" mediaItemID="20" duration="7">
      <Effects />
      <Transitions>
        <ShapeEffect effectTemplateID="CrossfadeTransitionTemplate" duration="1.5">
          <BoundProperties />
        </ShapeEffect>
      </Transitions>
      <BoundProperties>
        <BoundPropertyInt Name="rotateStepNinety" Value="0" />
      </BoundProperties>
    </ImageClip>
    <ImageClip extentID="25" gapBefore="0" mediaItemID="21" duration="7">
      <Effects />
      <Transitions>
        <ShapeEffect effectTemplateID="CrossfadeTransitionTemplate" duration="1.5">
          <BoundProperties />
        </ShapeEffect>
      </Transitions>
      <BoundProperties>
        <BoundPropertyInt Name="rotateStepNinety" Value="0" />
      </BoundProperties>
    </ImageClip>
    <ImageClip extentID="26" gapBefore="0" mediaItemID="22" duration="7">
      <Effects />
      <Transitions>
        <ShapeEffect effectTemplateID="CrossfadeTransitionTemplate" duration="1.5">
          <BoundProperties />
        </ShapeEffect>
      </Transitions>
      <BoundProperties>
        <BoundPropertyInt Name="rotateStepNinety" Value="0" />
      </BoundProperties>
    </ImageClip>
    <ImageClip extentID="27" gapBefore="0" mediaItemID="23" duration="7">
      <Effects />
      <Transitions>
        <ShapeEffect effectTemplateID="CrossfadeTransitionTemplate" duration="1.5">
          <BoundProperties />
        </ShapeEffect>
      </Transitions>
      <BoundProperties>
        <BoundPropertyInt Name="rotateStepNinety" Value="0" />
      </BoundProperties>
    </ImageClip>
    <ImageClip extentID="28" gapBefore="0" mediaItemID="24" duration="7">
      <Effects />
      <Transitions>
        <ShapeEffect effectTemplateID="CrossfadeTransitionTemplate" duration="1.5">
          <BoundProperties />
        </ShapeEffect>
      </Transitions>
      <BoundProperties>
        <BoundPropertyInt Name="rotateStepNinety" Value="0" />
      </BoundProperties>
    </ImageClip>
    <ImageClip extentID="29" gapBefore="0" mediaItemID="25" duration="7">
      <Effects />
      <Transitions>
        <ShapeEffect effectTemplateID="CrossfadeTransitionTemplate" duration="1.5">
          <BoundProperties />
        </ShapeEffect>
      </Transitions>
      <BoundProperties>
        <BoundPropertyInt Name="rotateStepNinety" Value="0" />
      </BoundProperties>
    </ImageClip>
    <ImageClip extentID="30" gapBefore="0" mediaItemID="26" duration="7">
      <Effects />
      <Transitions>
        <ShapeEffect effectTemplateID="CrossfadeTransitionTemplate" duration="1.5">
          <BoundProperties />
        </ShapeEffect>
      </Transitions>
      <BoundProperties>
        <BoundPropertyInt Name="rotateStepNinety" Value="0" />
      </BoundProperties>
    </ImageClip>
    <ImageClip extentID="31" gapBefore="0" mediaItemID="27" duration="7">
      <Effects />
      <Transitions>
        <ShapeEffect effectTemplateID="CrossfadeTransitionTemplate" duration="1.5">
          <BoundProperties />
        </ShapeEffect>
      </Transitions>
      <BoundProperties>
        <BoundPropertyInt Name="rotateStepNinety" Value="0" />
      </BoundProperties>
    </ImageClip>
    <ImageClip extentID="32" gapBefore="0" mediaItemID="28" duration="7">
      <Effects />
      <Transitions>
        <ShapeEffect effectTemplateID="CrossfadeTransitionTemplate" duration="1.5">
          <BoundProperties />
        </ShapeEffect>
      </Transitions>
      <BoundProperties>
        <BoundPropertyInt Name="rotateStepNinety" Value="0" />
      </BoundProperties>
    </ImageClip>
    <ImageClip extentID="33" gapBefore="0" mediaItemID="29" duration="7">
      <Effects />
      <Transitions>
        <ShapeEffect effectTemplateID="CrossfadeTransitionTemplate" duration="1.5">
          <BoundProperties />
        </ShapeEffect>
      </Transitions>
      <BoundProperties>
        <BoundPropertyInt Name="rotateStepNinety" Value="0" />
      </BoundProperties>
    </ImageClip>
    <ImageClip extentID="34" gapBefore="0" mediaItemID="30" duration="7">
      <Effects />
      <Transitions>
        <ShapeEffect effectTemplateID="CrossfadeTransitionTemplate" duration="1.5">
          <BoundProperties />
        </ShapeEffect>
      </Transitions>
      <BoundProperties>
        <BoundPropertyInt Name="rotateStepNinety" Value="0" />
      </BoundProperties>
    </ImageClip>
    <ImageClip extentID="35" gapBefore="0" mediaItemID="31" duration="7">
      <Effects />
      <Transitions>
        <ShapeEffect effectTemplateID="CrossfadeTransitionTemplate" duration="1.5">
          <BoundProperties />
        </ShapeEffect>
      </Transitions>
      <BoundProperties>
        <BoundPropertyInt Name="rotateStepNinety" Value="0" />
      </BoundProperties>
    </ImageClip>
    <ImageClip extentID="36" gapBefore="0" mediaItemID="32" duration="7">
      <Effects />
      <Transitions>
        <ShapeEffect effectTemplateID="CrossfadeTransitionTemplate" duration="1.5">
          <BoundProperties />
        </ShapeEffect>
      </Transitions>
      <BoundProperties>
        <BoundPropertyInt Name="rotateStepNinety" Value="0" />
      </BoundProperties>
    </ImageClip>
    <ImageClip extentID="37" gapBefore="0" mediaItemID="33" duration="7">
      <Effects />
      <Transitions>
        <ShapeEffect effectTemplateID="CrossfadeTransitionTemplate" duration="1.5">
          <BoundProperties />
        </ShapeEffect>
      </Transitions>
      <BoundProperties>
        <BoundPropertyInt Name="rotateStepNinety" Value="0" />
      </BoundProperties>
    </ImageClip>
    <ImageClip extentID="38" gapBefore="0" mediaItemID="34" duration="7">
      <Effects />
      <Transitions>
        <ShapeEffect effectTemplateID="CrossfadeTransitionTemplate" duration="1.5">
          <BoundProperties />
        </ShapeEffect>
      </Transitions>
      <BoundProperties>
        <BoundPropertyInt Name="rotateStepNinety" Value="0" />
      </BoundProperties>
    </ImageClip>
    <ImageClip extentID="39" gapBefore="0" mediaItemID="35" duration="7">
      <Effects />
      <Transitions>
        <ShapeEffect effectTemplateID="CrossfadeTransitionTemplate" duration="1.5">
          <BoundProperties />
        </ShapeEffect>
      </Transitions>
      <BoundProperties>
        <BoundPropertyInt Name="rotateStepNinety" Value="0" />
      </BoundProperties>
    </ImageClip>
    <ImageClip extentID="40" gapBefore="0" mediaItemID="36" duration="7">
      <Effects />
      <Transitions>
        <ShapeEffect effectTemplateID="CrossfadeTransitionTemplate" duration="1.5">
          <BoundProperties />
        </ShapeEffect>
      </Transitions>
      <BoundProperties>
        <BoundPropertyInt Name="rotateStepNinety" Value="0" />
      </BoundProperties>
    </ImageClip>
    <ImageClip extentID="41" gapBefore="0" mediaItemID="37" duration="7">
      <Effects />
      <Transitions>
        <ShapeEffect effectTemplateID="CrossfadeTransitionTemplate" duration="1.5">
          <BoundProperties />
        </ShapeEffect>
      </Transitions>
      <BoundProperties>
        <BoundPropertyInt Name="rotateStepNinety" Value="0" />
      </BoundProperties>
    </ImageClip>
    <ImageClip extentID="42" gapBefore="0" mediaItemID="38" duration="7">
      <Effects />
      <Transitions>
        <ShapeEffect effectTemplateID="CrossfadeTransitionTemplate" duration="1.5">
          <BoundProperties />
        </ShapeEffect>
      </Transitions>
      <BoundProperties>
        <BoundPropertyInt Name="rotateStepNinety" Value="0" />
      </BoundProperties>
    </ImageClip>
    <ImageClip extentID="43" gapBefore="0" mediaItemID="39" duration="7">
      <Effects />
      <Transitions>
        <ShapeEffect effectTemplateID="CrossfadeTransitionTemplate" duration="1.5">
          <BoundProperties />
        </ShapeEffect>
      </Transitions>
      <BoundProperties>
        <BoundPropertyInt Name="rotateStepNinety" Value="0" />
      </BoundProperties>
    </ImageClip>
    <ImageClip extentID="44" gapBefore="0" mediaItemID="40" duration="7">
      <Effects />
      <Transitions>
        <ShapeEffect effectTemplateID="CrossfadeTransitionTemplate" duration="1.5">
          <BoundProperties />
        </ShapeEffect>
      </Transitions>
      <BoundProperties>
        <BoundPropertyInt Name="rotateStepNinety" Value="0" />
      </BoundProperties>
    </ImageClip>
    <ExtentSelector extentID="1" gapBefore="0" primaryTrack="true">
      <Effects />
      <Transitions />
      <BoundProperties />
      <ExtentRefs>
        <ExtentRef id="5" />
        <ExtentRef id="6" />
        <ExtentRef id="7" />
        <ExtentRef id="8" />
        <ExtentRef id="9" />
        <ExtentRef id="10" />
        <ExtentRef id="11" />
        <ExtentRef id="12" />
        <ExtentRef id="13" />
        <ExtentRef id="14" />
        <ExtentRef id="15" />
        <ExtentRef id="16" />
        <ExtentRef id="42" />
        <ExtentRef id="43" />
        <ExtentRef id="44" />
        <ExtentRef id="22" />
        <ExtentRef id="23" />
        <ExtentRef id="24" />
        <ExtentRef id="25" />
        <ExtentRef id="26" />
        <ExtentRef id="27" />
        <ExtentRef id="28" />
        <ExtentRef id="29" />
        <ExtentRef id="30" />
        <ExtentRef id="31" />
        <ExtentRef id="32" />
        <ExtentRef id="33" />
        <ExtentRef id="34" />
        <ExtentRef id="35" />
        <ExtentRef id="36" />
        <ExtentRef id="37" />
        <ExtentRef id="38" />
        <ExtentRef id="39" />
        <ExtentRef id="40" />
        <ExtentRef id="41" />
        <ExtentRef id="17" />
        <ExtentRef id="18" />
        <ExtentRef id="19" />
        <ExtentRef id="20" />
        <ExtentRef id="21" />
      </ExtentRefs>
    </ExtentSelector>
    <ExtentSelector extentID="2" gapBefore="0" primaryTrack="false">
      <Effects />
      <Transitions />
      <BoundProperties />
      <ExtentRefs />
    </ExtentSelector>
    <ExtentSelector extentID="3" gapBefore="0" primaryTrack="false">
      <Effects />
      <Transitions />
      <BoundProperties />
      <ExtentRefs />
    </ExtentSelector>
    <ExtentSelector extentID="4" gapBefore="0" primaryTrack="false">
      <Effects />
      <Transitions />
      <BoundProperties />
      <ExtentRefs />
    </ExtentSelector>
  </Extents>
  <BoundPlaceholders>
    <BoundPlaceholder placeholderID="SingleExtentView" extentID="0" />
    <BoundPlaceholder placeholderID="Main" extentID="1" />
    <BoundPlaceholder placeholderID="SoundTrack" extentID="2" />
    <BoundPlaceholder placeholderID="Text" extentID="4" />
    <BoundPlaceholder placeholderID="Narration" extentID="3" />
  </BoundPlaceholders>
  <BoundProperties>
    <BoundPropertyFloatSet Name="AspectRatio">
      <BoundPropertyFloatElement Value="1.7777776718139648" />
    </BoundPropertyFloatSet>
    <BoundPropertyFloat Name="DuckedNarrationAndSoundTrackMix" Value="0.5" />
    <BoundPropertyFloat Name="DuckedVideoAndNarrationMix" Value="0.5" />
    <BoundPropertyFloat Name="DuckedVideoAndSoundTrackMix" Value="0.5" />
    <BoundPropertyFloat Name="SoundTrackMix" Value="0.5" />
  </BoundProperties>
  <ThemeOperationLog themeID="0">
    <MonolithicThemeOperations />
  </ThemeOperationLog>
  <AudioDuckingProperties emphasisPlaceholderID="Narration" />
</Project>